<svg id="svg" version="1.1" xmlns="http://www.w3.org/2000/svg" xmlns:xlink="http://www.w3.org/1999/xlink" width="400" height="355.55555555555554" viewBox="0, 0, 400,355.55555555555554"><g id="svgg"><path id="path0" d="M198.756 1.244 C 198.296 1.733,197.744 2.133,197.529 2.133 C 197.147 2.133,188.982 10.262,188.974 10.650 C 188.972 10.757,188.400 11.410,187.704 12.102 C 187.008 12.794,186.498 13.540,186.572 13.760 C 186.645 13.980,186.216 14.448,185.619 14.801 C 185.022 15.154,184.533 15.553,184.533 15.687 C 184.533 15.922,182.736 18.224,181.374 19.733 C 181.021 20.124,180.526 20.834,180.274 21.311 C 180.021 21.788,179.679 22.348,179.513 22.555 C 177.898 24.575,177.441 25.226,176.920 26.241 C 176.589 26.886,176.087 27.503,175.804 27.612 C 175.521 27.721,175.289 28.001,175.289 28.235 C 175.289 28.469,174.824 29.291,174.257 30.063 C 173.689 30.835,173.195 31.583,173.159 31.725 C 172.797 33.148,172.682 33.391,172.442 33.243 C 172.289 33.148,171.909 33.710,171.596 34.491 C 171.284 35.272,170.888 35.911,170.718 35.911 C 170.547 35.911,170.132 36.632,169.796 37.513 C 169.459 38.395,169.066 39.043,168.922 38.954 C 168.778 38.865,168.376 39.584,168.028 40.551 C 167.680 41.518,167.252 42.220,167.076 42.111 C 166.900 42.003,166.756 42.123,166.756 42.379 C 166.756 42.861,163.927 48.753,163.545 49.067 C 163.426 49.164,163.046 49.964,162.699 50.844 C 162.353 51.724,161.910 52.637,161.715 52.873 C 161.521 53.109,161.479 53.494,161.624 53.728 C 161.771 53.966,161.738 54.062,161.548 53.944 C 161.361 53.829,160.999 54.444,160.743 55.312 C 160.487 56.179,160.153 56.889,160.002 56.889 C 159.850 56.889,159.453 57.729,159.118 58.756 C 158.784 59.782,158.351 60.815,158.158 61.051 C 157.964 61.287,157.909 61.647,158.035 61.851 C 158.161 62.055,158.112 62.222,157.926 62.222 C 157.554 62.222,157.180 63.007,156.932 64.306 C 156.844 64.768,156.538 65.379,156.253 65.665 C 155.967 65.950,155.713 66.413,155.689 66.692 C 155.664 66.971,155.615 67.320,155.580 67.467 C 155.544 67.613,155.392 68.253,155.241 68.889 C 155.089 69.524,154.801 70.044,154.600 70.044 C 154.399 70.044,154.323 70.274,154.431 70.555 C 154.539 70.836,154.495 71.116,154.334 71.177 C 154.174 71.239,153.930 71.809,153.793 72.444 L 153.543 73.600 155.185 73.600 C 156.089 73.600,159.501 73.440,162.769 73.244 C 177.629 72.355,209.504 71.768,219.022 72.208 C 246.999 73.501,245.181 73.458,245.906 72.856 C 246.399 72.447,245.854 70.256,245.339 70.574 C 245.184 70.670,245.078 70.550,245.103 70.307 C 245.176 69.593,244.156 66.133,243.872 66.133 C 243.729 66.133,243.507 65.653,243.378 65.067 C 243.249 64.480,242.933 64.000,242.676 64.000 C 242.051 64.000,241.661 62.908,242.122 62.447 C 242.655 61.914,242.582 61.626,241.711 60.814 C 241.283 60.415,241.049 60.089,241.191 60.089 C 241.334 60.089,241.117 59.731,240.709 59.294 C 240.302 58.857,240.127 58.447,240.320 58.382 C 240.750 58.239,240.487 57.480,239.402 55.738 C 238.947 55.007,238.531 54.120,238.477 53.766 C 238.423 53.413,238.004 52.491,237.547 51.717 C 237.089 50.944,236.679 50.151,236.635 49.956 C 236.420 48.995,234.871 45.914,234.088 44.887 C 233.603 44.250,233.283 43.602,233.379 43.448 C 233.631 43.041,232.994 42.133,232.457 42.133 C 232.206 42.133,232.000 41.802,232.000 41.396 C 232.000 40.539,230.207 37.689,229.668 37.689 C 229.467 37.689,229.328 37.489,229.360 37.244 C 229.477 36.340,229.316 35.922,228.584 35.241 C 228.172 34.857,227.927 34.395,228.039 34.214 C 228.151 34.033,227.928 33.548,227.543 33.135 C 227.159 32.723,226.844 32.219,226.844 32.015 C 226.844 31.811,226.684 31.644,226.489 31.644 C 226.293 31.644,226.133 31.324,226.133 30.933 C 226.133 30.542,226.010 30.222,225.859 30.222 C 225.708 30.222,225.269 29.622,224.884 28.889 C 224.500 28.156,223.983 27.428,223.737 27.271 C 223.490 27.115,223.289 26.755,223.289 26.471 C 223.289 26.188,223.129 25.956,222.933 25.956 C 222.738 25.956,222.578 25.789,222.578 25.585 C 222.578 25.381,222.419 25.021,222.225 24.785 C 221.123 23.443,218.629 20.183,217.408 18.490 C 216.634 17.415,215.480 15.982,214.844 15.305 C 214.209 14.628,213.689 13.894,213.689 13.675 C 213.689 13.455,213.289 13.062,212.801 12.800 C 212.312 12.539,211.975 12.262,212.052 12.185 C 212.128 12.109,211.848 11.672,211.429 11.214 C 208.050 7.528,207.337 6.826,207.156 7.007 C 207.043 7.120,206.837 6.910,206.698 6.540 C 206.230 5.289,200.824 0.356,199.922 0.356 C 199.740 0.356,199.215 0.756,198.756 1.244 M195.022 104.927 C 191.049 105.369,181.812 108.736,181.393 109.895 C 181.327 110.075,181.109 110.222,180.908 110.222 C 179.537 110.222,170.667 119.119,170.667 120.495 C 170.667 120.712,170.514 120.889,170.327 120.889 C 170.027 120.889,168.609 123.635,167.023 127.289 C 162.767 137.091,164.534 150.624,171.323 160.226 C 173.195 162.873,177.994 167.822,178.689 167.822 C 178.909 167.822,179.374 168.136,179.721 168.520 C 180.068 168.903,180.933 169.522,181.643 169.894 C 182.353 170.266,183.493 170.883,184.178 171.264 C 186.033 172.298,190.513 173.894,192.533 174.242 C 193.511 174.410,194.951 174.678,195.733 174.838 C 196.567 175.008,199.250 174.943,202.214 174.681 C 220.797 173.040,233.308 160.398,235.214 141.333 C 235.652 136.953,233.519 127.678,231.166 123.733 C 230.641 122.853,229.990 121.699,229.719 121.168 C 228.094 117.983,222.233 112.144,218.456 109.947 C 211.188 105.719,203.228 104.013,195.022 104.927 M205.867 116.029 C 209.576 116.987,214.468 119.611,215.753 121.333 C 216.009 121.675,216.443 121.956,216.719 121.956 C 216.994 121.956,217.384 122.263,217.585 122.639 C 217.786 123.015,218.155 123.535,218.405 123.794 C 219.300 124.725,221.511 127.925,221.511 128.289 C 221.511 128.493,221.742 128.891,222.024 129.173 C 222.306 129.455,222.824 130.787,223.174 132.132 C 223.525 133.477,223.944 134.674,224.107 134.791 C 224.522 135.091,224.497 144.113,224.078 144.928 C 223.888 145.298,223.439 146.560,223.080 147.733 C 222.721 148.907,222.332 149.947,222.216 150.044 C 222.099 150.142,221.788 150.756,221.524 151.408 C 221.260 152.060,220.869 152.780,220.655 153.008 C 220.442 153.236,219.567 154.342,218.712 155.467 C 217.857 156.591,217.041 157.511,216.898 157.511 C 216.754 157.511,216.235 157.871,215.742 158.311 C 214.121 159.761,213.532 160.179,211.523 161.311 C 210.430 161.927,208.830 162.611,207.968 162.830 C 207.106 163.050,206.051 163.404,205.623 163.618 C 205.196 163.832,204.516 163.920,204.112 163.814 C 203.653 163.694,203.463 163.761,203.606 163.993 C 203.906 164.479,194.519 164.166,194.189 163.679 C 194.061 163.489,192.876 163.046,191.556 162.694 C 190.236 162.342,189.154 161.952,189.151 161.827 C 189.149 161.702,188.472 161.280,187.647 160.889 C 186.822 160.498,185.898 159.938,185.595 159.644 C 185.291 159.351,184.523 158.711,183.888 158.222 C 183.253 157.733,182.058 156.453,181.233 155.378 C 180.408 154.302,179.543 153.221,179.311 152.974 C 179.078 152.728,178.686 151.968,178.439 151.285 C 178.192 150.603,177.880 150.044,177.746 150.044 C 177.611 150.044,177.217 148.964,176.870 147.644 C 176.522 146.324,176.065 145.021,175.854 144.748 C 175.361 144.109,175.371 134.797,175.865 134.463 C 176.061 134.331,176.509 133.142,176.861 131.822 C 177.213 130.502,177.628 129.422,177.782 129.422 C 177.937 129.422,178.218 128.982,178.407 128.444 C 178.772 127.404,182.715 121.956,183.102 121.956 C 183.229 121.956,183.643 121.676,184.022 121.333 C 186.669 118.944,190.458 116.965,193.689 116.283 C 194.911 116.025,195.911 115.666,195.911 115.485 C 195.911 114.962,203.298 115.366,205.867 116.029 M199.591 204.005 C 198.099 204.958,193.703 217.141,191.991 225.067 C 191.590 226.924,191.100 229.004,190.903 229.689 C 187.714 240.736,185.977 273.381,187.375 296.000 C 187.568 299.129,187.720 302.449,187.712 303.378 C 187.704 304.329,187.861 305.067,188.071 305.067 C 188.277 305.067,188.444 305.307,188.444 305.600 C 188.444 305.893,188.317 306.133,188.160 306.133 C 188.004 306.133,187.941 306.692,188.021 307.375 C 188.101 308.058,188.309 308.528,188.483 308.421 C 188.657 308.313,188.825 308.914,188.856 309.757 C 188.920 311.523,189.003 312.440,189.298 314.667 C 189.809 318.513,189.963 319.289,190.217 319.289 C 190.465 319.289,190.894 321.537,191.131 324.079 C 191.185 324.660,191.370 325.183,191.542 325.240 C 191.715 325.298,191.798 325.942,191.727 326.672 C 191.649 327.476,191.719 327.829,191.903 327.566 C 192.095 327.291,192.445 328.307,192.852 330.321 C 193.207 332.076,193.622 333.511,193.775 333.511 C 193.928 333.511,194.160 334.229,194.292 335.107 C 194.424 335.985,194.754 336.925,195.026 337.198 C 195.299 337.470,195.427 337.788,195.310 337.905 C 195.194 338.021,195.278 338.333,195.498 338.597 C 195.717 338.862,195.956 339.385,196.028 339.761 C 196.509 342.260,200.178 349.066,200.178 347.459 C 200.178 347.260,200.575 346.720,201.061 346.260 C 201.546 345.799,201.947 345.182,201.951 344.889 C 201.955 344.596,202.251 343.876,202.608 343.289 C 203.215 342.291,203.846 340.544,203.891 339.733 C 203.902 339.538,204.120 339.213,204.375 339.012 C 204.631 338.812,204.884 338.412,204.938 338.124 C 205.162 336.924,205.921 334.350,206.244 333.689 C 206.436 333.298,206.666 332.658,206.756 332.267 C 206.846 331.876,207.101 330.756,207.323 329.778 C 207.545 328.800,207.866 327.826,208.037 327.613 C 208.207 327.401,208.404 326.585,208.475 325.800 C 208.546 325.015,208.689 324.229,208.794 324.053 C 208.899 323.877,209.102 322.853,209.244 321.778 C 209.386 320.702,209.652 319.636,209.835 319.409 C 210.045 319.149,210.032 318.912,209.799 318.769 C 209.555 318.618,209.598 318.277,209.926 317.759 C 210.199 317.329,210.624 315.218,210.871 313.067 C 211.118 310.916,211.493 308.930,211.704 308.653 C 211.982 308.290,211.976 308.113,211.682 308.014 C 211.267 307.874,211.444 306.489,211.876 306.489 C 212.211 306.489,212.250 305.853,212.454 297.067 C 212.918 277.075,212.985 264.407,212.652 259.439 C 211.504 242.302,208.714 226.160,204.930 214.756 C 203.931 211.745,203.876 211.606,202.364 208.178 C 200.211 203.298,200.357 203.517,199.591 204.005 M139.229 228.104 C 138.663 228.397,137.998 228.914,137.751 229.252 C 137.504 229.590,137.169 229.880,137.006 229.897 C 136.281 229.973,135.488 230.503,135.668 230.793 C 135.776 230.969,135.481 231.258,135.013 231.436 C 134.544 231.615,133.626 232.327,132.974 233.019 C 132.321 233.710,131.644 234.188,131.470 234.080 C 131.295 233.972,131.064 234.220,130.957 234.631 C 130.849 235.042,130.625 235.378,130.459 235.378 C 130.155 235.378,123.940 241.446,123.905 241.778 C 123.837 242.413,122.876 243.563,121.799 244.297 C 120.682 245.057,119.913 246.114,120.937 245.482 C 121.158 245.345,120.598 245.984,119.692 246.904 C 118.786 247.823,118.044 248.703,118.044 248.859 C 118.044 249.015,117.259 250.193,116.299 251.477 C 115.340 252.761,114.448 254.146,114.318 254.555 C 114.188 254.965,113.934 255.207,113.752 255.095 C 113.571 254.983,113.422 255.129,113.422 255.418 C 113.422 255.708,113.048 256.398,112.591 256.950 C 111.443 258.340,109.278 262.454,108.979 263.815 C 108.844 264.433,108.643 264.851,108.535 264.742 C 108.272 264.480,107.505 265.987,107.205 267.357 C 107.072 267.958,106.846 268.378,106.702 268.289 C 106.558 268.200,106.232 268.718,105.977 269.441 C 105.722 270.164,105.137 271.592,104.676 272.614 C 104.216 273.637,103.764 274.837,103.673 275.281 C 103.582 275.725,103.187 276.909,102.794 277.912 C 102.402 278.915,102.027 280.137,101.961 280.628 C 101.895 281.119,101.628 281.778,101.368 282.092 C 101.107 282.406,100.971 283.067,101.066 283.562 C 101.161 284.057,101.118 284.536,100.971 284.626 C 100.824 284.717,100.592 285.553,100.455 286.485 C 100.317 287.416,99.994 288.658,99.735 289.244 C 99.158 290.554,98.517 295.676,98.237 301.232 C 98.121 303.523,97.890 305.314,97.724 305.211 C 97.558 305.109,97.425 307.634,97.428 310.823 C 97.431 314.278,97.559 316.424,97.744 316.131 C 97.942 315.818,98.066 316.464,98.084 317.909 C 98.120 320.783,99.208 330.075,99.536 330.311 C 99.816 330.513,100.827 335.812,100.948 337.710 C 100.964 337.966,101.117 338.089,101.287 337.984 C 101.456 337.880,101.887 339.230,102.243 340.986 C 102.632 342.901,103.004 344.000,103.174 343.733 C 103.364 343.433,103.458 343.535,103.461 344.045 C 103.483 347.092,105.119 347.895,105.912 345.249 C 106.147 344.464,106.461 343.822,106.610 343.822 C 106.758 343.822,107.088 343.222,107.344 342.489 C 108.050 340.465,109.966 336.635,110.667 335.851 C 111.009 335.468,111.309 335.025,111.333 334.866 C 111.358 334.708,111.398 334.412,111.422 334.209 C 111.447 334.007,111.643 333.727,111.859 333.587 C 112.074 333.447,112.549 332.693,112.914 331.911 C 113.278 331.129,113.862 330.179,114.211 329.800 C 114.559 329.421,114.844 328.896,114.844 328.633 C 114.844 328.370,115.069 328.069,115.343 327.964 C 115.617 327.859,115.932 327.504,116.044 327.175 C 116.351 326.269,117.084 325.220,117.778 324.696 C 118.120 324.438,118.400 324.014,118.400 323.754 C 118.400 323.494,118.805 323.016,119.300 322.692 C 119.795 322.368,120.114 321.962,120.008 321.791 C 119.902 321.619,120.217 321.163,120.708 320.777 C 121.198 320.391,121.600 319.958,121.600 319.814 C 121.600 319.318,125.271 315.242,127.525 313.235 C 128.079 312.741,129.253 311.501,130.133 310.480 C 131.013 309.458,131.871 308.622,132.041 308.622 C 132.210 308.622,133.443 307.653,134.779 306.468 C 136.115 305.284,137.336 304.293,137.493 304.266 C 137.650 304.239,137.938 304.087,138.133 303.927 C 141.128 301.477,146.556 297.852,147.837 297.446 C 148.274 297.307,148.553 297.065,148.457 296.909 C 148.360 296.752,148.998 296.351,149.874 296.016 C 150.750 295.682,151.467 295.277,151.467 295.117 C 151.467 294.958,152.258 294.542,153.226 294.194 C 154.194 293.846,154.917 293.451,154.834 293.316 C 154.750 293.181,155.558 292.795,156.630 292.458 C 158.885 291.748,158.917 291.627,157.644 288.612 C 152.203 275.729,144.586 250.725,142.946 240.361 C 142.410 236.978,140.853 229.183,140.548 228.359 C 140.272 227.613,140.202 227.599,139.229 228.104 M259.799 227.826 C 259.717 227.971,259.456 229.209,259.218 230.578 C 258.981 231.947,258.386 235.039,257.896 237.451 C 257.406 239.862,257.080 241.910,257.171 242.001 C 257.263 242.092,257.027 243.159,256.648 244.372 C 256.011 246.407,255.739 247.484,254.407 253.241 C 254.147 254.364,253.662 256.204,253.328 257.330 C 252.995 258.456,252.492 260.178,252.210 261.156 C 251.928 262.133,251.313 264.213,250.843 265.778 C 250.373 267.342,249.786 269.342,249.539 270.222 C 249.292 271.102,248.886 272.222,248.636 272.711 C 248.386 273.200,248.181 273.779,248.180 273.997 C 248.179 274.215,247.876 275.175,247.507 276.130 C 247.139 277.085,246.398 279.067,245.860 280.533 C 245.323 282.000,244.425 284.211,243.864 285.447 C 243.303 286.683,242.844 287.849,242.844 288.039 C 242.844 288.229,242.524 289.011,242.133 289.778 C 241.387 291.241,241.101 292.959,241.778 291.911 C 241.977 291.602,242.125 291.553,242.128 291.795 C 242.131 292.024,242.693 292.396,243.378 292.622 C 244.062 292.848,244.622 293.149,244.622 293.291 C 244.622 293.432,245.429 293.839,246.416 294.193 C 247.403 294.548,248.403 295.020,248.638 295.241 C 248.874 295.463,249.707 295.982,250.489 296.394 C 253.465 297.963,254.405 298.496,254.578 298.711 C 254.675 298.833,255.316 299.272,256.000 299.687 C 256.684 300.102,257.084 300.443,256.889 300.443 C 256.693 300.444,257.253 300.798,258.133 301.230 C 259.013 301.662,259.923 302.182,260.156 302.385 C 261.308 303.395,263.118 304.871,264.810 306.180 C 265.843 306.979,267.283 308.235,268.010 308.970 C 268.738 309.706,269.696 310.420,270.138 310.558 C 270.581 310.695,270.859 310.944,270.756 311.111 C 270.652 311.279,270.901 311.521,271.309 311.651 C 271.772 311.798,271.976 312.083,271.852 312.407 C 271.717 312.757,272.001 313.050,272.714 313.299 C 273.299 313.503,273.688 313.814,273.579 313.990 C 273.470 314.167,273.639 314.311,273.956 314.311 C 274.272 314.311,274.428 314.477,274.303 314.680 C 274.178 314.882,275.048 316.009,276.238 317.184 C 277.427 318.358,278.400 319.552,278.400 319.837 C 278.400 320.122,278.623 320.356,278.895 320.356 C 279.333 320.356,279.882 321.125,279.969 321.860 C 279.986 322.003,280.363 322.374,280.806 322.684 C 281.249 322.995,281.528 323.385,281.425 323.551 C 281.322 323.718,281.661 324.187,282.178 324.594 C 282.695 325.001,283.018 325.333,282.895 325.333 C 282.772 325.333,283.247 326.088,283.952 327.011 C 284.656 327.933,285.371 329.053,285.540 329.499 C 285.710 329.946,286.022 330.311,286.234 330.311 C 286.446 330.311,286.532 330.453,286.425 330.626 C 286.318 330.800,286.468 331.139,286.759 331.381 C 287.051 331.623,287.289 332.033,287.289 332.293 C 287.289 332.552,287.539 332.905,287.845 333.076 C 288.150 333.247,288.441 333.662,288.490 333.998 C 288.539 334.334,288.848 334.922,289.175 335.304 C 289.503 335.687,289.668 336.000,289.541 336.000 C 289.415 336.000,289.607 336.326,289.967 336.724 C 290.328 337.122,290.647 337.777,290.677 338.179 C 290.706 338.581,290.887 339.015,291.079 339.144 C 291.270 339.272,291.707 340.098,292.050 340.978 C 292.393 341.858,292.914 342.950,293.207 343.404 C 293.500 343.859,293.802 344.555,293.879 344.952 C 294.181 346.522,296.174 347.125,296.180 345.647 C 296.181 345.328,296.439 344.587,296.753 344.000 C 297.067 343.413,297.551 341.984,297.829 340.823 C 298.107 339.662,298.477 338.539,298.653 338.328 C 298.828 338.117,299.228 336.426,299.542 334.572 C 299.856 332.717,300.216 330.960,300.342 330.667 C 300.469 330.373,300.614 329.893,300.666 329.600 C 301.188 326.656,301.521 323.847,301.682 321.044 C 301.788 319.199,302.033 316.649,302.228 315.378 C 302.559 313.216,302.479 307.774,302.052 303.289 C 301.949 302.213,301.689 299.333,301.473 296.889 C 301.257 294.444,300.859 291.804,300.590 291.022 C 300.320 290.240,300.097 289.107,300.094 288.504 C 300.091 287.901,299.969 287.287,299.822 287.141 C 299.676 286.994,299.548 286.767,299.538 286.637 C 299.436 285.246,298.881 282.848,298.471 282.026 C 298.189 281.460,297.795 280.142,297.597 279.095 C 297.398 278.049,297.091 277.102,296.913 276.993 C 296.735 276.883,296.475 276.314,296.335 275.730 C 296.194 275.145,295.907 274.347,295.697 273.956 C 295.486 273.564,295.301 273.164,295.284 273.067 C 295.190 272.509,294.534 270.838,293.640 268.880 C 293.080 267.653,292.622 266.493,292.622 266.302 C 292.622 266.112,292.462 265.956,292.267 265.956 C 292.071 265.956,291.911 265.771,291.911 265.546 C 291.911 264.689,288.783 258.826,288.089 258.382 C 287.844 258.226,287.644 257.890,287.644 257.636 C 287.644 257.381,287.134 256.469,286.511 255.609 C 285.888 254.748,285.448 254.032,285.533 254.017 C 285.691 253.989,284.352 252.141,283.378 251.042 C 282.612 250.178,281.244 248.240,281.244 248.018 C 281.244 247.548,274.605 240.131,272.230 237.948 C 271.321 237.113,270.566 236.313,270.551 236.170 C 270.510 235.777,265.354 231.467,264.924 231.467 C 264.718 231.467,264.298 231.082,263.989 230.612 C 263.681 230.141,263.038 229.658,262.559 229.538 C 262.080 229.418,261.689 229.181,261.689 229.012 C 261.689 228.579,259.980 227.507,259.799 227.826 " stroke="none" fill="#1c4558" fill-rule="evenodd"></path><path id="path1" d="M199.289 88.345 L 199.289 104.089 202.459 104.328 C 208.156 104.759,214.112 106.319,216.178 107.922 C 216.471 108.150,216.994 108.437,217.340 108.560 C 217.687 108.683,218.902 109.416,220.041 110.190 C 240.460 124.056,241.073 153.784,221.245 168.584 C 215.335 172.995,205.692 176.051,199.315 175.534 C 198.323 175.453,197.951 175.455,198.489 175.538 L 199.467 175.689 199.467 188.959 C 199.467 201.341,199.509 202.239,200.094 202.392 C 202.196 202.942,207.463 218.075,209.905 230.578 C 213.154 247.217,214.658 274.029,213.323 291.529 C 213.053 295.064,213.064 296.367,213.364 296.552 C 213.653 296.731,213.630 296.858,213.285 296.996 C 213.018 297.102,213.440 297.221,214.222 297.262 C 218.160 297.465,224.703 298.392,224.502 298.718 C 224.398 298.885,224.603 299.034,224.957 299.049 C 225.311 299.064,225.920 299.150,226.311 299.239 C 226.702 299.328,227.422 299.455,227.911 299.521 C 230.244 299.833,231.826 300.203,231.638 300.392 C 231.414 300.615,234.733 301.472,235.911 301.495 C 236.588 301.508,237.867 299.250,237.867 298.041 C 237.867 297.798,238.014 297.600,238.195 297.600 C 238.375 297.600,238.716 297.000,238.952 296.267 C 239.188 295.533,239.507 294.773,239.661 294.578 C 239.814 294.382,239.923 294.142,239.903 294.044 C 239.883 293.947,240.155 293.428,240.506 292.892 C 240.857 292.355,241.047 291.662,240.928 291.351 C 240.747 290.879,241.582 288.549,243.211 284.978 C 243.629 284.061,245.274 279.702,245.894 277.867 C 246.158 277.084,246.871 275.004,247.478 273.244 C 248.569 270.079,249.478 267.202,251.241 261.333 C 252.044 258.659,254.280 249.782,255.809 243.200 C 256.316 241.017,257.283 236.157,258.321 230.578 C 258.575 229.209,258.970 227.449,259.197 226.667 C 259.424 225.884,259.834 223.564,260.107 221.511 C 260.813 216.208,260.931 215.108,260.956 213.579 C 260.968 212.834,261.103 212.302,261.257 212.397 C 261.411 212.492,261.542 212.302,261.549 211.974 C 261.573 210.801,262.070 204.246,262.214 203.200 C 262.425 201.658,262.923 188.088,262.810 186.948 C 262.757 186.418,262.870 185.418,263.062 184.726 C 263.253 184.033,263.300 183.467,263.165 183.467 C 262.820 183.467,262.774 180.519,263.112 180.089 C 263.509 179.584,263.433 170.667,263.032 170.667 C 262.620 170.667,262.755 167.525,263.205 166.624 C 263.429 166.177,263.416 166.034,263.168 166.187 C 262.927 166.336,262.813 165.702,262.841 164.363 C 262.889 161.991,262.378 148.022,262.210 147.141 C 262.072 146.421,261.725 141.955,261.629 139.664 C 261.590 138.746,261.458 138.056,261.336 138.132 C 261.214 138.207,260.823 135.279,260.467 131.623 C 260.111 127.968,259.698 124.818,259.550 124.622 C 259.274 124.258,259.028 122.867,258.648 119.522 C 258.529 118.477,258.218 116.797,257.957 115.789 C 257.696 114.780,257.221 112.356,256.902 110.400 C 256.582 108.444,256.175 106.524,255.996 106.133 C 255.678 105.436,255.023 102.371,254.666 99.911 C 254.567 99.227,254.376 98.587,254.242 98.489 C 254.107 98.391,253.701 96.871,253.339 95.111 C 252.978 93.351,252.554 91.671,252.397 91.378 C 252.025 90.682,251.030 86.564,250.994 85.571 C 250.974 85.027,250.902 84.957,250.749 85.333 C 250.559 85.802,250.059 84.107,249.360 80.622 C 249.252 80.084,249.040 79.644,248.888 79.644 C 248.737 79.644,248.500 79.046,248.363 78.314 C 248.226 77.582,248.010 76.822,247.884 76.625 C 247.625 76.220,247.574 76.007,247.511 75.076 C 247.463 74.360,248.587 74.460,230.933 73.611 C 227.218 73.432,218.658 73.179,211.911 73.048 C 205.164 72.918,199.564 72.764,199.467 72.706 C 199.369 72.649,199.289 79.686,199.289 88.345 M136.711 167.822 C 136.576 168.437,136.546 169.020,136.643 169.118 C 136.741 169.215,136.932 168.792,137.067 168.178 C 137.202 167.563,137.232 166.980,137.134 166.882 C 137.037 166.785,136.846 167.208,136.711 167.822 " stroke="none" fill="#fa9c24" fill-rule="evenodd"></path><path id="path2" d="M195.378 72.882 C 194.400 73.030,190.400 73.167,186.489 73.187 C 173.724 73.252,153.378 74.236,152.952 74.809 C 152.792 75.024,152.459 75.920,152.211 76.800 C 151.963 77.680,151.552 78.880,151.297 79.467 C 151.042 80.053,150.630 81.455,150.381 82.582 C 150.132 83.709,149.715 84.809,149.453 85.026 C 149.192 85.243,148.978 85.951,148.978 86.600 C 148.978 87.249,148.818 87.879,148.622 88.000 C 148.427 88.121,148.266 88.570,148.264 88.999 C 148.263 89.427,148.034 90.214,147.756 90.748 C 147.478 91.282,146.982 93.042,146.654 94.659 C 146.327 96.277,145.933 97.760,145.778 97.956 C 145.624 98.151,145.244 99.801,144.933 101.623 C 144.623 103.444,144.247 105.124,144.098 105.356 C 143.949 105.588,143.803 106.178,143.774 106.667 C 143.745 107.156,143.683 107.556,143.637 107.556 C 143.591 107.556,143.498 107.876,143.430 108.267 C 142.955 111.011,142.231 114.544,142.100 114.762 C 142.014 114.905,141.842 115.780,141.718 116.706 C 141.594 117.633,141.426 118.593,141.344 118.840 C 141.263 119.087,141.106 120.301,140.996 121.538 C 140.886 122.776,140.658 124.056,140.489 124.383 C 140.181 124.978,139.604 129.384,139.175 134.400 C 139.050 135.867,138.860 137.212,138.752 137.389 C 138.548 137.724,138.376 139.353,138.128 143.289 C 138.048 144.560,137.820 147.440,137.621 149.689 C 137.422 151.938,137.201 156.540,137.128 159.916 C 137.056 163.292,136.893 166.159,136.765 166.287 C 136.638 166.414,136.545 166.852,136.558 167.259 C 136.583 167.990,136.588 167.990,136.921 167.289 C 137.163 166.778,137.185 166.928,137.000 167.822 C 136.290 171.245,136.992 195.375,138.138 206.933 C 138.206 207.618,138.308 209.258,138.364 210.578 C 138.421 211.898,138.564 212.978,138.683 212.978 C 138.802 212.978,139.194 215.978,139.553 219.644 C 139.976 223.959,140.394 226.601,140.737 227.134 C 141.028 227.586,141.557 229.586,141.911 231.578 C 144.211 244.507,146.716 254.850,150.536 267.200 C 151.536 270.433,152.255 272.513,155.696 282.133 C 156.116 283.307,156.776 284.945,157.163 285.774 C 157.550 286.603,157.867 287.372,157.867 287.482 C 157.867 287.593,158.193 288.400,158.592 289.275 C 158.991 290.151,159.221 291.023,159.103 291.213 C 158.844 291.632,159.670 294.044,160.071 294.044 C 160.228 294.044,160.356 294.210,160.356 294.411 C 160.356 294.613,160.620 295.373,160.944 296.100 C 161.267 296.827,161.507 297.542,161.477 297.689 C 161.447 297.836,161.547 297.956,161.700 297.956 C 161.852 297.956,162.287 298.756,162.667 299.733 C 163.183 301.064,163.538 301.509,164.078 301.502 C 165.034 301.491,167.817 300.869,168.711 300.468 C 169.663 300.040,172.643 299.334,174.400 299.119 C 175.182 299.023,175.985 298.814,176.184 298.653 C 176.383 298.493,178.543 298.098,180.984 297.775 C 187.724 296.885,187.124 297.167,186.878 295.007 C 185.935 286.730,186.313 260.145,187.550 247.822 C 188.818 235.180,192.618 217.264,195.204 211.733 C 195.386 211.342,195.864 210.166,196.266 209.120 C 196.667 208.075,197.551 206.144,198.231 204.831 L 199.467 202.443 199.467 189.044 C 199.467 178.414,199.373 175.644,199.013 175.644 C 193.259 175.644,183.342 172.307,179.506 169.080 C 178.917 168.584,178.317 168.178,178.173 168.178 C 177.483 168.178,171.922 162.168,170.200 159.562 C 155.391 137.144,169.986 106.372,196.444 104.230 L 199.289 104.000 199.382 88.444 C 199.455 76.121,199.381 72.888,199.026 72.884 C 198.779 72.881,198.258 72.819,197.867 72.746 C 197.476 72.673,196.356 72.735,195.378 72.882 " stroke="none" fill="#fbc314" fill-rule="evenodd"></path><path id="path3" d="M198.840 0.592 C 198.594 0.692,198.212 1.119,197.992 1.542 C 197.618 2.262,197.652 2.256,198.530 1.449 C 199.045 0.975,199.467 0.535,199.467 0.471 C 199.467 0.341,199.461 0.342,198.840 0.592 M185.586 14.249 C 185.224 14.924,185.253 14.954,185.929 14.592 C 186.687 14.186,186.934 13.511,186.324 13.511 C 186.135 13.511,185.803 13.843,185.586 14.249 M174.656 72.899 C 170.299 73.036,166.625 73.256,166.493 73.388 C 166.133 73.749,187.146 73.205,187.538 72.844 C 187.903 72.508,186.934 72.512,174.656 72.899 M188.119 72.679 C 188.470 73.023,192.034 73.150,194.489 72.904 C 197.004 72.653,196.894 72.635,192.563 72.585 C 190.037 72.557,188.037 72.599,188.119 72.679 M199.496 72.677 C 199.578 72.757,205.484 72.896,212.622 72.988 C 221.728 73.105,223.425 73.077,218.311 72.894 C 209.829 72.590,199.282 72.469,199.496 72.677 M226.851 73.256 C 227.333 73.561,231.067 73.768,230.726 73.471 C 230.644 73.401,229.621 73.248,228.451 73.133 C 227.070 72.997,226.509 73.040,226.851 73.256 M153.250 73.689 C 153.244 74.384,156.911 74.638,157.324 73.971 C 157.454 73.761,156.835 73.714,155.710 73.847 C 154.350 74.008,153.806 73.936,153.571 73.565 C 153.317 73.165,153.254 73.189,153.250 73.689 M161.511 73.855 C 162.049 73.936,162.929 73.936,163.467 73.855 C 164.004 73.773,163.564 73.707,162.489 73.707 C 161.413 73.707,160.973 73.773,161.511 73.855 M236.544 73.862 C 237.479 73.935,238.919 73.934,239.744 73.860 C 240.569 73.785,239.804 73.725,238.044 73.726 C 236.284 73.727,235.609 73.788,236.544 73.862 M242.765 74.216 C 243.601 74.291,244.881 74.290,245.609 74.214 C 246.338 74.138,245.653 74.076,244.089 74.077 C 242.524 74.079,241.929 74.141,242.765 74.216 M193.462 104.562 C 192.604 104.731,191.804 104.967,191.684 105.088 C 191.565 105.209,192.090 105.191,192.852 105.049 C 193.614 104.907,196.254 104.677,198.719 104.539 L 203.200 104.287 199.111 104.271 C 196.862 104.263,194.320 104.394,193.462 104.562 M206.933 105.041 C 206.933 105.125,207.773 105.370,208.800 105.584 C 209.827 105.799,212.007 106.517,213.646 107.179 C 215.285 107.842,216.405 108.185,216.135 107.943 C 214.812 106.753,206.933 104.269,206.933 105.041 M187.059 106.341 C 186.591 106.529,186.278 106.752,186.364 106.838 C 186.620 107.094,188.089 106.610,188.089 106.270 C 188.089 106.097,188.049 105.966,188.000 105.978 C 187.951 105.990,187.528 106.154,187.059 106.341 M182.706 108.450 L 181.867 109.167 182.844 108.749 C 183.382 108.519,183.822 108.196,183.822 108.032 C 183.822 107.588,183.632 107.659,182.706 108.450 M219.389 110.147 C 226.015 114.581,231.339 121.488,233.622 128.614 C 234.595 131.651,234.999 131.818,234.134 128.826 C 231.968 121.340,222.969 110.485,217.340 108.569 C 216.994 108.451,217.916 109.161,219.389 110.147 M177.543 111.959 C 175.144 113.884,169.600 120.003,169.600 120.725 C 169.600 121.270,170.243 120.715,170.792 119.696 C 171.508 118.366,175.686 113.909,178.108 111.890 C 180.204 110.144,179.734 110.201,177.543 111.959 M168.338 123.058 C 167.832 124.055,167.501 124.952,167.600 125.052 C 167.700 125.152,168.137 124.456,168.572 123.506 C 169.007 122.555,169.425 121.658,169.502 121.511 C 169.579 121.364,169.555 121.244,169.449 121.244 C 169.343 121.244,168.843 122.060,168.338 123.058 M166.410 127.522 C 165.986 128.655,165.563 130.066,165.470 130.657 C 165.376 131.249,165.773 130.373,166.352 128.711 C 167.543 125.291,167.588 124.374,166.410 127.522 M234.734 132.089 C 234.743 132.480,234.873 133.280,235.022 133.867 L 235.294 134.933 235.311 133.867 C 235.320 133.280,235.190 132.480,235.022 132.089 L 234.717 131.378 234.734 132.089 M164.734 133.208 C 164.284 135.337,164.430 145.807,164.925 146.844 C 165.345 147.726,165.347 147.724,165.170 146.667 C 164.699 143.851,164.575 137.538,164.941 134.967 C 165.362 132.011,165.228 130.872,164.734 133.208 M235.494 137.422 C 235.496 138.791,235.560 139.308,235.637 138.570 C 235.714 137.832,235.713 136.712,235.634 136.081 C 235.556 135.450,235.493 136.053,235.494 137.422 M235.254 143.229 C 235.130 144.565,234.943 146.205,234.838 146.873 C 234.665 147.981,234.682 148.011,235.030 147.212 C 235.430 146.292,235.970 140.800,235.659 140.800 C 235.561 140.800,235.378 141.893,235.254 143.229 M165.490 148.934 C 165.764 150.588,168.136 156.503,168.787 157.156 C 169.089 157.459,168.968 156.999,168.506 156.089 C 168.059 155.209,167.153 152.969,166.492 151.111 C 165.832 149.253,165.381 148.274,165.490 148.934 M233.644 150.816 C 231.153 158.684,225.496 165.748,218.159 170.151 C 214.699 172.227,214.245 172.833,217.557 170.956 C 223.754 167.442,228.823 162.181,231.834 156.138 C 233.284 153.228,234.774 149.122,234.585 148.555 C 234.522 148.365,234.098 149.382,233.644 150.816 M169.642 158.667 C 171.757 162.671,178.607 169.008,183.710 171.682 C 185.551 172.647,184.829 171.963,182.472 170.510 C 177.198 167.258,173.586 163.935,170.756 159.733 C 169.453 157.798,168.907 157.275,169.642 158.667 M202.489 163.911 C 201.863 164.180,201.898 164.220,202.777 164.242 C 203.357 164.256,203.683 164.118,203.556 163.911 C 203.435 163.716,203.305 163.567,203.268 163.581 C 203.231 163.594,202.880 163.743,202.489 163.911 M185.956 172.565 C 186.444 172.841,187.244 173.173,187.733 173.302 L 188.622 173.537 187.733 173.035 C 187.244 172.759,186.444 172.427,185.956 172.298 L 185.067 172.063 185.956 172.565 M211.911 173.187 C 210.958 173.605,210.700 173.811,211.273 173.697 C 212.539 173.445,214.044 172.866,214.044 172.631 C 214.044 172.329,213.605 172.443,211.911 173.187 M190.222 174.166 C 190.987 174.616,193.299 175.018,192.878 174.628 C 192.688 174.452,191.893 174.206,191.111 174.080 C 190.226 173.938,189.890 173.971,190.222 174.166 M206.400 174.625 C 203.658 175.258,203.630 175.274,205.632 175.078 C 206.773 174.966,208.293 174.659,209.009 174.396 C 210.763 173.750,209.835 173.832,206.400 174.625 M194.302 174.919 C 194.428 175.122,194.948 175.289,195.458 175.289 C 196.573 175.289,196.444 175.119,195.081 174.791 C 194.420 174.633,194.152 174.677,194.302 174.919 M200.272 175.544 C 200.812 175.626,201.612 175.624,202.049 175.539 C 202.487 175.455,202.044 175.388,201.067 175.391 C 200.089 175.393,199.731 175.462,200.272 175.544 M198.696 203.993 C 195.886 209.019,190.056 227.016,190.686 228.722 C 190.774 228.961,190.957 228.676,191.094 228.089 C 193.668 217.018,195.327 211.909,198.334 205.780 C 200.154 202.072,200.116 202.063,202.371 206.717 C 203.329 208.694,204.007 209.911,203.877 209.422 C 203.426 207.723,200.649 202.488,200.149 202.393 C 199.862 202.339,199.235 203.030,198.696 203.993 M204.181 210.844 C 204.859 213.108,205.607 215.134,205.724 215.017 C 205.925 214.815,204.876 211.478,204.412 210.844 C 204.065 210.370,204.040 210.370,204.181 210.844 M205.881 215.680 C 205.873 215.896,206.019 216.536,206.205 217.102 C 206.391 217.669,206.721 218.829,206.939 219.680 C 207.157 220.531,207.412 221.151,207.506 221.057 C 207.600 220.963,207.482 220.107,207.245 219.154 C 206.777 217.273,205.903 215.049,205.881 215.680 M208.000 223.141 C 208.001 223.640,209.018 228.309,209.388 229.511 C 209.968 231.393,209.784 229.610,209.062 226.344 C 208.440 223.528,207.999 222.200,208.000 223.141 M140.615 227.423 C 140.728 227.839,141.046 229.576,141.323 231.284 C 141.777 234.093,142.223 235.578,142.222 234.281 C 142.221 233.095,141.155 227.853,140.799 227.286 C 140.458 226.742,140.435 226.759,140.615 227.423 M258.748 228.089 C 258.634 228.480,258.457 229.520,258.354 230.400 C 258.171 231.958,258.180 231.949,258.674 230.044 C 259.145 228.228,259.211 226.505,258.748 228.089 M209.926 232.000 C 210.635 237.092,210.957 238.939,211.109 238.788 C 211.335 238.562,210.590 233.415,210.126 232.000 L 209.777 230.933 209.926 232.000 M189.585 233.431 C 189.017 236.406,188.663 239.504,188.918 239.271 C 189.206 239.008,190.289 232.201,190.123 231.701 C 190.050 231.484,189.808 232.262,189.585 233.431 M257.778 233.049 C 257.778 233.136,257.449 234.914,257.046 236.999 C 256.644 239.083,256.380 240.854,256.460 240.934 C 256.540 241.014,256.859 239.837,257.169 238.318 C 257.975 234.362,258.193 232.889,257.972 232.889 C 257.865 232.889,257.778 232.961,257.778 233.049 M142.222 235.458 C 142.222 236.209,143.659 243.333,143.849 243.523 C 144.154 243.828,143.983 242.503,143.251 238.894 C 142.526 235.319,142.222 234.304,142.222 235.458 M188.128 242.914 C 187.509 247.532,187.077 252.583,186.889 257.422 L 186.716 261.867 187.055 258.133 C 187.241 256.080,187.711 251.214,188.098 247.320 C 188.819 240.068,188.836 237.632,188.128 242.914 M122.930 242.681 C 121.894 243.641,121.753 243.911,122.287 243.911 C 122.469 243.911,122.960 243.431,123.378 242.844 C 124.306 241.541,124.200 241.503,122.930 242.681 M211.638 243.200 C 211.638 243.884,211.711 244.164,211.801 243.822 C 211.890 243.480,211.890 242.920,211.801 242.578 C 211.711 242.236,211.638 242.516,211.638 243.200 M255.492 244.114 C 255.361 244.635,255.334 245.142,255.432 245.239 C 255.530 245.337,255.717 244.991,255.848 244.470 C 255.978 243.949,256.005 243.442,255.908 243.345 C 255.810 243.247,255.623 243.593,255.492 244.114 M144.000 244.338 C 144.000 245.113,145.532 251.031,145.691 250.871 C 145.873 250.690,144.370 243.911,144.149 243.911 C 144.067 243.911,144.000 244.103,144.000 244.338 M212.056 247.111 C 212.190 248.578,212.452 252.004,212.639 254.726 C 212.953 259.323,213.340 261.613,213.329 258.815 C 213.319 256.392,212.276 244.869,212.047 244.660 C 211.918 244.541,211.922 245.644,212.056 247.111 M253.543 252.655 C 253.119 254.348,252.837 255.799,252.917 255.879 C 252.997 255.959,253.410 254.639,253.834 252.945 C 254.259 251.252,254.541 249.801,254.461 249.721 C 254.381 249.641,253.968 250.961,253.543 252.655 M145.787 251.585 C 145.806 252.260,147.134 257.636,147.492 258.489 C 148.110 259.959,147.961 258.994,146.982 255.177 C 146.126 251.844,145.764 250.753,145.787 251.585 M251.222 261.356 C 250.887 262.552,250.679 263.597,250.760 263.679 C 250.842 263.760,251.200 262.865,251.556 261.689 C 251.912 260.513,252.120 259.468,252.018 259.366 C 251.916 259.264,251.558 260.159,251.222 261.356 M148.087 260.622 C 148.230 261.307,148.636 262.747,148.990 263.822 C 149.344 264.898,149.896 266.715,150.216 267.860 C 150.536 269.006,150.888 269.853,150.997 269.743 C 151.107 269.633,150.518 267.336,149.687 264.638 C 148.177 259.731,147.600 258.284,148.087 260.622 M213.462 264.533 C 213.462 266.391,213.521 267.151,213.595 266.222 C 213.668 265.293,213.668 263.773,213.595 262.844 C 213.521 261.916,213.462 262.676,213.462 264.533 M186.457 267.911 C 186.456 271.236,186.510 272.643,186.575 271.040 C 186.641 269.436,186.641 266.716,186.576 264.995 C 186.511 263.275,186.457 264.587,186.457 267.911 M249.600 266.667 C 249.181 268.073,248.906 269.292,248.990 269.375 C 249.073 269.458,249.499 268.391,249.937 267.004 C 250.375 265.616,250.649 264.398,250.547 264.295 C 250.445 264.193,250.019 265.260,249.600 266.667 M213.490 278.756 C 213.490 284.329,213.539 286.609,213.599 283.822 C 213.659 281.036,213.659 276.476,213.599 273.689 C 213.539 270.902,213.490 273.182,213.490 278.756 M247.822 272.178 C 246.801 275.247,247.091 275.537,248.158 272.514 C 248.609 271.237,248.894 270.109,248.792 270.007 C 248.690 269.905,248.254 270.882,247.822 272.178 M151.317 271.112 C 151.564 272.109,153.105 276.492,155.160 282.038 C 156.141 284.686,157.014 286.364,156.597 284.800 C 156.467 284.311,155.834 282.551,155.192 280.889 C 154.549 279.227,153.442 276.194,152.732 274.150 C 151.441 270.436,150.819 269.101,151.317 271.112 M246.472 276.166 C 245.904 277.647,245.620 278.756,245.809 278.756 C 246.032 278.756,247.146 275.472,246.980 275.306 C 246.909 275.235,246.680 275.622,246.472 276.166 M186.458 281.778 C 186.458 285.298,186.512 286.690,186.576 284.871 C 186.641 283.052,186.641 280.172,186.576 278.471 C 186.511 276.770,186.458 278.258,186.458 281.778 M244.475 281.649 C 243.958 283.044,243.604 284.255,243.688 284.340 C 243.827 284.479,244.872 281.910,245.490 279.911 C 246.053 278.088,245.347 279.297,244.475 281.649 M242.981 285.371 C 242.851 285.742,242.274 287.143,241.698 288.485 C 240.875 290.401,240.744 291.012,241.088 291.329 C 241.416 291.632,241.469 291.630,241.296 291.322 C 241.169 291.096,241.629 289.593,242.319 287.982 C 243.008 286.371,243.492 284.974,243.394 284.876 C 243.297 284.778,243.111 285.001,242.981 285.371 M156.999 286.667 C 157.371 287.872,158.651 290.143,158.369 289.098 C 158.017 287.792,157.171 285.867,156.949 285.867 C 156.841 285.867,156.863 286.227,156.999 286.667 M186.872 292.756 C 186.939 295.274,187.080 297.421,187.186 297.526 C 187.441 297.782,187.350 294.165,187.018 290.844 C 186.806 288.735,186.776 289.134,186.872 292.756 M158.583 291.111 C 158.587 291.823,158.675 291.952,158.906 291.588 C 159.080 291.312,159.141 290.872,159.040 290.610 C 158.752 289.858,158.577 290.049,158.583 291.111 M212.792 294.214 C 212.651 296.289,212.613 298.064,212.707 298.159 C 212.802 298.254,212.993 296.632,213.132 294.555 C 213.272 292.477,213.310 290.702,213.217 290.610 C 213.125 290.518,212.934 292.140,212.792 294.214 M187.383 301.778 C 187.387 302.628,187.496 302.942,187.685 302.644 C 187.960 302.211,187.822 300.444,187.514 300.444 C 187.439 300.444,187.380 301.044,187.383 301.778 M97.685 303.556 C 97.592 304.289,97.654 305.041,97.824 305.227 C 98.003 305.422,98.133 304.862,98.133 303.893 C 98.133 301.884,97.919 301.722,97.685 303.556 M187.733 305.600 C 187.733 305.893,187.893 306.133,188.089 306.133 C 188.284 306.133,188.444 305.893,188.444 305.600 C 188.444 305.307,188.284 305.067,188.089 305.067 C 187.893 305.067,187.733 305.307,187.733 305.600 M131.193 309.164 C 130.506 309.992,130.996 310.148,131.731 309.336 C 132.086 308.943,132.212 308.622,132.010 308.622 C 131.808 308.622,131.440 308.866,131.193 309.164 M124.885 315.615 C 124.638 315.714,124.256 316.141,124.037 316.564 C 123.662 317.284,123.697 317.278,124.574 316.471 C 125.089 315.997,125.511 315.557,125.511 315.494 C 125.511 315.364,125.505 315.365,124.885 315.615 " stroke="none" fill="#a18340" fill-rule="evenodd"></path><path id="path4" d="M229.422 36.727 C 229.422 37.193,229.729 37.765,230.105 38.000 C 230.768 38.414,230.770 38.393,230.193 37.257 C 229.420 35.737,229.422 35.739,229.422 36.727 M240.438 59.022 C 240.682 59.413,241.009 59.733,241.165 59.733 C 241.320 59.733,241.276 59.413,241.067 59.022 C 240.857 58.631,240.530 58.311,240.340 58.311 C 240.148 58.311,240.192 58.628,240.438 59.022 M241.990 62.522 C 241.668 63.043,242.139 64.000,242.717 64.000 C 243.130 64.000,243.147 63.850,242.809 63.200 C 242.255 62.135,242.238 62.121,241.990 62.522 M196.800 72.148 C 195.184 72.266,200.712 72.488,209.600 72.662 C 218.204 72.830,225.804 73.016,226.489 73.076 C 229.431 73.334,246.482 73.992,246.620 73.854 C 246.999 73.475,246.299 72.530,245.890 72.869 C 245.278 73.377,244.392 73.381,234.311 72.915 C 214.990 72.022,212.598 71.939,206.222 71.939 C 202.604 71.939,198.364 72.033,196.800 72.148 M178.044 72.794 C 178.876 72.869,180.236 72.869,181.067 72.794 C 181.898 72.719,181.218 72.658,179.556 72.658 C 177.893 72.658,177.213 72.719,178.044 72.794 M162.428 73.219 C 160.537 73.331,158.870 73.542,158.724 73.689 C 158.450 73.964,163.253 73.729,167.644 73.252 L 170.133 72.981 168.000 72.998 C 166.827 73.008,164.319 73.107,162.428 73.219 M154.222 73.851 C 154.662 73.936,155.382 73.936,155.822 73.851 C 156.262 73.766,155.902 73.697,155.022 73.697 C 154.142 73.697,153.782 73.766,154.222 73.851 M202.844 104.860 C 204.409 105.015,206.249 105.246,206.933 105.373 C 208.040 105.578,208.080 105.561,207.289 105.221 C 206.800 105.010,204.960 104.779,203.200 104.708 L 200.000 104.577 202.844 104.860 M188.889 105.851 C 188.449 105.936,188.089 106.146,188.089 106.317 C 188.089 106.489,188.569 106.462,189.156 106.258 C 190.112 105.924,190.637 105.525,189.956 105.648 C 189.809 105.675,189.329 105.766,188.889 105.851 M211.022 106.502 C 211.609 106.770,212.329 106.985,212.622 106.979 C 212.916 106.973,212.596 106.752,211.911 106.489 C 210.288 105.864,209.649 105.873,211.022 106.502 M213.512 107.379 C 213.632 107.574,213.932 107.733,214.177 107.733 C 214.422 107.733,215.706 108.387,217.030 109.185 C 218.354 109.984,219.516 110.558,219.612 110.462 C 219.708 110.366,218.775 109.722,217.538 109.032 C 214.906 107.564,213.191 106.860,213.512 107.379 M178.844 111.321 C 178.160 111.915,177.922 112.246,178.315 112.056 C 178.964 111.742,180.576 110.209,180.233 110.232 C 180.154 110.237,179.529 110.727,178.844 111.321 M220.089 110.878 C 220.089 111.104,220.222 111.289,220.384 111.289 C 220.546 111.289,221.700 112.209,222.948 113.333 C 224.196 114.458,224.984 115.045,224.698 114.638 C 224.245 113.993,223.441 113.257,220.711 110.985 C 220.302 110.645,220.089 110.609,220.089 110.878 M225.422 115.233 C 225.422 115.341,226.278 116.503,227.324 117.816 C 228.371 119.128,229.448 120.637,229.719 121.168 C 229.990 121.699,230.641 122.853,231.166 123.733 C 232.531 126.021,234.224 131.246,234.801 134.952 C 235.099 136.860,235.313 137.609,235.337 136.823 C 235.470 132.533,232.327 123.854,229.106 119.613 C 227.241 117.158,225.422 114.996,225.422 115.233 M172.223 117.778 C 171.173 118.976,170.560 119.822,170.741 119.822 C 170.830 119.822,171.418 119.182,172.046 118.400 C 173.266 116.881,173.390 116.446,172.223 117.778 M235.112 142.756 C 235.116 143.538,235.189 143.816,235.274 143.374 C 235.359 142.931,235.356 142.291,235.267 141.951 C 235.178 141.611,235.108 141.973,235.112 142.756 M234.382 146.400 C 234.171 147.524,233.907 148.924,233.795 149.511 C 233.627 150.385,233.686 150.331,234.120 149.215 C 234.667 147.809,235.249 144.356,234.939 144.356 C 234.843 144.356,234.592 145.276,234.382 146.400 M231.678 154.943 C 228.846 160.739,223.770 166.401,218.578 169.558 C 217.844 170.004,217.244 170.449,217.244 170.547 C 217.244 171.341,223.180 166.802,225.858 163.960 C 228.776 160.863,233.383 153.620,232.804 153.041 C 232.731 152.968,232.224 153.824,231.678 154.943 M214.984 171.422 C 211.870 173.064,207.328 174.237,202.197 174.724 C 197.371 175.182,197.282 175.205,200.122 175.246 C 204.894 175.315,213.920 173.071,216.391 171.200 C 217.373 170.457,216.574 170.583,214.984 171.422 M192.889 174.578 C 193.010 174.773,193.339 174.933,193.621 174.933 C 193.903 174.933,194.133 174.773,194.133 174.578 C 194.133 174.382,193.804 174.222,193.401 174.222 C 192.999 174.222,192.768 174.382,192.889 174.578 M199.515 203.432 C 199.120 204.065,199.143 204.127,199.711 203.949 C 200.404 203.731,200.398 203.720,202.364 208.178 C 203.876 211.606,203.931 211.745,204.930 214.756 C 206.197 218.574,207.908 225.059,208.682 228.978 C 209.851 234.895,211.222 243.924,211.731 249.067 C 212.314 254.950,212.622 256.708,212.622 254.150 C 212.622 250.509,209.867 229.985,209.243 228.975 C 209.163 228.845,208.843 227.473,208.533 225.925 C 207.383 220.190,204.603 211.604,202.314 206.718 C 200.442 202.722,200.163 202.394,199.515 203.432 M139.939 227.154 C 139.803 227.375,139.861 227.556,140.068 227.556 C 140.275 227.556,140.457 227.836,140.473 228.178 C 140.488 228.527,140.577 228.611,140.675 228.369 C 140.927 227.750,140.256 226.642,139.939 227.154 M259.433 227.111 C 259.338 227.265,258.912 229.227,258.486 231.473 C 257.791 235.135,257.271 237.589,254.942 248.178 C 252.234 260.491,247.307 276.146,242.698 287.079 C 241.799 289.213,241.132 291.029,241.218 291.114 C 241.397 291.293,242.844 288.556,242.844 288.039 C 242.844 287.849,243.303 286.683,243.864 285.447 C 244.425 284.211,245.323 282.000,245.860 280.533 C 246.398 279.067,247.139 277.085,247.507 276.130 C 247.876 275.175,248.179 274.215,248.180 273.997 C 248.181 273.779,248.386 273.200,248.636 272.711 C 248.886 272.222,249.292 271.102,249.539 270.222 C 249.786 269.342,250.373 267.342,250.843 265.778 C 251.313 264.213,251.928 262.133,252.210 261.156 C 252.492 260.178,252.995 258.456,253.328 257.330 C 253.662 256.204,254.147 254.364,254.407 253.241 C 255.739 247.484,256.011 246.407,256.648 244.372 C 257.027 243.159,257.263 242.092,257.171 242.001 C 257.080 241.910,257.406 239.862,257.896 237.451 C 258.386 235.039,258.981 231.947,259.218 230.578 C 259.455 229.209,259.796 227.903,259.975 227.676 C 260.175 227.423,260.166 227.180,259.953 227.048 C 259.761 226.930,259.527 226.958,259.433 227.111 M190.756 228.978 C 190.622 229.398,190.593 229.822,190.691 229.920 C 190.788 230.018,190.978 229.754,191.111 229.333 C 191.245 228.913,191.274 228.489,191.176 228.391 C 191.078 228.293,190.889 228.557,190.756 228.978 M188.998 239.131 C 188.864 239.844,188.825 240.499,188.912 240.586 C 188.999 240.673,189.180 240.160,189.314 239.447 C 189.447 238.733,189.486 238.078,189.399 237.992 C 189.312 237.905,189.131 238.417,188.998 239.131 M188.527 242.844 C 188.527 243.529,188.600 243.809,188.690 243.467 C 188.779 243.124,188.779 242.564,188.690 242.222 C 188.600 241.880,188.527 242.160,188.527 242.844 M212.779 272.711 C 212.768 281.218,212.640 289.698,212.496 291.556 C 212.335 293.634,212.359 294.728,212.560 294.400 C 213.309 293.173,213.723 263.151,213.050 258.844 C 212.912 257.964,212.791 264.204,212.779 272.711 M186.783 264.000 C 186.785 265.369,186.849 265.885,186.926 265.148 C 187.003 264.410,187.002 263.290,186.923 262.659 C 186.845 262.028,186.782 262.631,186.783 264.000 M186.773 286.578 C 186.773 287.653,186.840 288.093,186.921 287.556 C 187.003 287.018,187.003 286.138,186.921 285.600 C 186.840 285.062,186.773 285.502,186.773 286.578 M301.872 304.030 C 301.875 304.307,302.036 304.773,302.229 305.067 C 302.507 305.490,302.557 305.437,302.469 304.809 C 302.343 303.900,301.864 303.275,301.872 304.030 " stroke="none" fill="#36331c" fill-rule="evenodd"></path></g></svg>